<svg width="21" height="18" viewBox="0 0 21 18" fill="none" xmlns="http://www.w3.org/2000/svg">
<path d="M14.6 5C14.6 5.22091 14.4209 5.4 14.2 5.4C13.9791 5.4 13.8 5.22091 13.8 5C13.8 4.77909 13.9791 4.6 14.2 4.6C14.4209 4.6 14.6 4.77909 14.6 5Z" fill="white"/>
<path d="M3.4 17H5.8M5.8 1H1.8C1.35817 1 1 1.35817 1 1.8V11.8C1 12.2418 1.35817 12.6 1.8 12.6H5.8M14.2 13.8C15.5255 13.8 16.6 12.7255 16.6 11.4C16.6 10.0745 15.5255 9 14.2 9C12.8745 9 11.8 10.0745 11.8 11.4C11.8 12.7255 12.8745 13.8 14.2 13.8ZM14.6 5C14.6 5.22091 14.4209 5.4 14.2 5.4C13.9791 5.4 13.8 5.22091 13.8 5C13.8 4.77909 13.9791 4.6 14.2 4.6C14.4209 4.6 14.6 4.77909 14.6 5ZM11.1 17H17.3C18.6807 17 19.8 15.8807 19.8 14.5V3.5C19.8 2.11929 18.6807 1 17.3 1H11.1C9.71929 1 8.6 2.11929 8.6 3.5V14.5C8.6 15.8807 9.71929 17 11.1 17Z" stroke="white" stroke-width="2"/>
</svg>
