<svg width="161" height="161" viewBox="0 0 161 161" fill="none" xmlns="http://www.w3.org/2000/svg">
<path fill-rule="evenodd" clip-rule="evenodd" d="M80.5 161C124.959 161 161 124.959 161 80.5C161 36.0411 124.959 0 80.5 0C36.0411 0 0 36.0411 0 80.5C0 124.959 36.0411 161 80.5 161ZM115.261 109.315C95.1364 95.5938 68.1506 93.3068 37.5057 100.168C30.1875 102.455 32.4238 111.073 39.7926 110.23C71.8097 106.571 86.446 107.028 109.315 118.006C115.964 121.197 122.122 113.889 115.261 109.315ZM35.6761 74.554C26.5284 76.841 27.8007 89.0798 39.3352 86.9035C63.5767 82.3295 89.6477 81.4148 117.091 95.5939C125.781 101.54 133.791 90.735 123.037 84.6167C96.5085 69.5232 69.5227 67.2358 35.6761 74.554ZM135.386 58.0881C111.602 42.0796 61.2898 37.0484 30.1875 47.1108C19.6676 50.7699 22.8693 64.9488 34.7614 62.2045C69.0653 54.2882 97.8807 58.0881 128.068 71.8096C135.386 75.9261 144.991 65.4063 135.386 58.0881Z" fill="#1ED760"/>
</svg>
