<svg width="24" height="22" viewBox="0 0 24 22" fill="none" xmlns="http://www.w3.org/2000/svg">
<g opacity="0.7">
<path d="M6.81641 1.04102C8.44683 0.853628 10.09 1.3131 11.415 2.33594L12.0244 2.80664L12.6348 2.33887C13.8925 1.37535 15.4346 0.914044 16.9834 1.03027C18.5285 1.14628 19.9895 1.8305 21.1025 2.96973H21.1035C21.71 3.60733 22.1915 4.36498 22.5176 5.2002C22.8437 6.03549 23.0078 6.93078 23 7.83398C22.9922 8.73721 22.8122 9.6291 22.4717 10.458C22.1312 11.2869 21.6369 12.0351 21.0195 12.6611L21.0146 12.667L21.0088 12.6729L13.8047 20.2119C13.3135 20.721 12.656 20.9999 11.9785 21C11.3008 21 10.6426 20.7212 10.1514 20.2119H10.1504L2.94727 12.6729L2.94238 12.667L2.72754 12.4355C1.68166 11.2506 1.06618 9.71033 1.00488 8.08496C0.939543 6.35124 1.50996 4.66113 2.59277 3.35547C3.67465 2.05095 5.18555 1.22853 6.81641 1.04102Z" stroke="white" stroke-width="2"/>
</g>
</svg>
