<svg width="70" height="70" viewBox="0 0 70 70" fill="none" xmlns="http://www.w3.org/2000/svg">
<path d="M70 35C70 54.33 54.33 70 35 70C15.67 70 0 54.33 0 35C0 15.67 15.67 0 35 0C54.33 0 70 15.67 70 35Z" fill="white"/>
<path d="M26 25C26 24.4477 26.4477 24 27 24H29.9827C30.535 24 30.9827 24.4477 30.9827 25V45C30.9827 45.5523 30.535 46 29.9827 46H27C26.4477 46 26 45.5523 26 45V25Z" fill="#121212"/>
<path d="M39.0173 25C39.0173 24.4477 39.465 24 40.0173 24H43C43.5523 24 44 24.4477 44 25V45C44 45.5523 43.5523 46 43 46H40.0173C39.465 46 39.0173 45.5523 39.0173 45V25Z" fill="#121212"/>
</svg>
